<?xml version="1.0" encoding="UTF-8"?>
<svg enable-background="new 0 0 118.923 136.104" viewBox="0 0 118.923 136.104" xmlns="http://www.w3.org/2000/svg" xmlns:xlink="http://www.w3.org/1999/xlink">
 <defs>
  <linearGradient id="k" x1="-255.7" x2="-254.22" gradientTransform="matrix(-19.214 74.255 74.255 19.214 -38682 10251)" gradientUnits="userSpaceOnUse">
   <stop stop-color="#fff" offset="0"/>
   <stop stop-color="#818181" offset="1"/>
  </linearGradient>
  <linearGradient id="j" x1="-415.45" x2="-413.97" gradientTransform="matrix(1.7271 4.5368 4.5368 -1.7271 -1248.1 2716.5)" gradientUnits="userSpaceOnUse">
   <stop stop-color="#fff" offset="0"/>
   <stop stop-color="#9f9f9f" offset="1"/>
  </linearGradient>
  <linearGradient id="i" x1="-232.93" x2="-231.45" gradientTransform="matrix(-38.525 -36.306 -36.306 38.525 7701.8 -26026)" gradientUnits="userSpaceOnUse">
   <stop stop-color="#fff" offset="0"/>
   <stop offset="1"/>
  </linearGradient>
  <linearGradient id="h" x1="-232.93" x2="-231.45" gradientTransform="matrix(-38.525 -36.306 -36.306 38.525 7701.8 -26026)" gradientUnits="userSpaceOnUse">
   <stop stop-color="#f4efef" offset="0"/>
   <stop offset="1"/>
  </linearGradient>
  <linearGradient id="g" x1="-232.93" x2="-231.45" gradientTransform="matrix(-38.525 -36.306 -36.306 38.525 7701.8 -26026)" gradientUnits="userSpaceOnUse">
   <stop stop-color="#383838" offset="0"/>
   <stop offset="1"/>
  </linearGradient>
  <linearGradient id="f" x1="-232.92" x2="-231.49" gradientTransform="matrix(-38.525 -36.306 -36.306 38.525 7701.8 -26026)" gradientUnits="userSpaceOnUse">
   <stop stop-color="#5e5d5d" offset="0"/>
   <stop offset="1"/>
  </linearGradient>
  <linearGradient id="e" x1="-248.15" x2="-246.67" gradientTransform="matrix(16.18 -8.5956 -8.5956 -16.18 8450.9 6121.8)" gradientUnits="userSpaceOnUse">
   <stop stop-color="#9c9c9c" offset="0"/>
   <stop stop-color="#5f5f5f" offset="1"/>
  </linearGradient>
  <linearGradient id="d" x1=".8052" x2="103.14" gradientUnits="userSpaceOnUse">
   <stop stop-color="#fff" offset="0"/>
   <stop offset="1"/>
  </linearGradient>
  <linearGradient id="c" x1="-262.64" x2="-261.17" gradientTransform="matrix(42.65 37.48 37.48 -42.65 -6436.4 29703)" gradientUnits="userSpaceOnUse">
   <stop stop-color="#bfbfbf" offset="0"/>
   <stop stop-color="#585858" offset="1"/>
  </linearGradient>
  <linearGradient id="b" x1="-257.88" x2="-256.4" gradientTransform="matrix(46.664 71.996 71.996 -46.664 -21360 40126)" gradientUnits="userSpaceOnUse">
   <stop stop-color="#fff" offset="0"/>
   <stop stop-color="#5e5d5d" offset="1"/>
  </linearGradient>
  <linearGradient id="a" x1="-257.88" x2="-256.4" gradientTransform="matrix(46.664 71.996 71.996 -46.664 -21360 40126)" gradientUnits="userSpaceOnUse">
   <stop stop-color="#fff" offset="0"/>
   <stop stop-color="#494848" offset="1"/>
  </linearGradient>
 </defs>
 <path d="m27.278,54.588c-.409,3.747.675,3.047 3.588,4.818 2.669,1.623 4.954,3.833 6.862,6.293 4.674,6.023 7.262,13.583 8.064,21.114 1.377,12.908-4.979,37.06-22.993,30.892 17.189,9.412 26.734-10.665 26.548-24.838-.175-13.237-6.419-35.678-22.069-38.279" fill="url(#k)"/>
 <path d="m45.486,84.49c1.846,11.742-.968,31.568-15.616,33.88-14.643,2.314-23.422-15.712-25.273-27.442-1.844-11.733.964-31.583 15.616-33.88 14.648-2.313 23.42,15.703 25.273,27.442" fill="#f4efef"/>
 <path d="m23.292,82.529c-.608.575-.752.462-1.292.186 4.456,7.818 6.557,23.549-2.384,29.388 11.664-3.004 7.846-22.388 3.676-29.574m-17.929-4.219c-.997,1.538.073.144 0,0" fill="url(#j)"/>
 <path d="m1.085,95.69c1.688,7.889 7.633,19.363 17.193,19.06 11.148-.355 12.313-15.883 10.607-23.862-1.686-7.886-7.628-19.38-17.192-19.06-11.156.374-12.327,15.859-10.608,23.862m2.26-.398c-1.393-6.511-1.189-19.44 7.569-20.951 8.751-1.504 14.251,10.181 15.697,16.934 1.403,6.518 1.199,19.441-7.569,20.951-8.744,1.503-14.253-10.188-15.697-16.934" fill="#383838"/>
 <path d="m25.294,92.404c1.064,6.719.083,19.496-8.686,20.871-8.767,1.372-13.623-10.463-14.687-17.186-1.055-6.726-.078-19.481 8.687-20.871 8.775-1.373 13.63,10.451 14.686,17.186" fill="#5e5d5d"/>
 <path d="m118.914,127.956c-.413,9.731-16.014,5.489-22.131,6.673-4.912.951-9.963,1.624-14.978,1.447-6.057-.212-10.161-2.854-15.223-5.884-10.83-6.482-21.661-12.965-32.491-19.447-4.905-2.936-14.93-6.718-17.801-12.178-3.217-6.121 5.297-5.817 8.565-3.74 2.892,1.838 5.789,3.67 8.689,5.497 11.545,7.278 23.125,14.508 34.808,21.562 9.395,5.671 19.842,4.077 30.085,1.415 3.552-.924 6.463-3.14 10.18-3.742 6.132-.994 10.545,2.126 10.297,8.397" fill="#6e6e6e"/>
 <path d="m4.005,73.138c-.04.857.073,1.703.334,2.541 .919-1.129.434-1.089-.334-2.541" fill="url(#i)"/>
 <path d="m5.001,74.798c-.08.342.067.103 0,0m21.17-6.086c-.846,1.78-2.262,3.409-3.018,5.202-.202.479-.872.82-1.012,1.316-1.455,1.72 1.48,3.542 2.63,5.368 2.015-3.423 2.4-8.082 1.4-11.886" fill="url(#h)"/>
 <path d="m21.259,76.192c-.579.488-1.159.975-1.738,1.463 1.494,1.419 2.739,3.095 3.771,4.874 2.567-2.493.011-4.331-2.033-6.337m-16.205-1.316c-1.143,1.091-.319,2.139.309,3.434 1.555-2.388 1.1-1.394-.309-3.434" fill="url(#g)"/>
 <path d="m6.833,76.96c-3.551,2.914 4.563,9.844 7.874,10.688 2.901.738 7.468-4.845 7.292-4.935-.635-1.127-1.369-2.184-2.2-3.173-1.78-2.1-2.091-.58-4.418-.244-3.018.439-6.275-.225-8.548-2.336" fill="url(#f)"/>
 <path d="m82.715,31.376c.265,4.174.204,8.509 1.406,12.554-.745-4.138-.759-8.391-1.406-12.554m-8.054-16.935c6.347,4.61 8.341,9.09 9.549,16.908 .81,5.246-.539,14.796 4.656,18.123 15.069,9.649 17.66-17.7 14.883-25.455 1.105,6.323.363,12.945-1.347,19.089 1.755.126-.045-15.138-.532-16.354-3.527-8.792-18.9-11.747-27.209-12.311" fill="url(#e)"/>
 <path d="m99.226,22.648c-22.894-13.842-52.084-9.473-67.097,13.607-4.974,7.647-6.558,17.698-5.674,26.686 .79,8.062-7.134,16.913-15.302,15.471-5.405-.956-7.78-7.625-8.856-12.227-2.121-9.062-1.917-19.095.208-28.138 2.939-12.509 11.36-22.217 22.466-28.377 20.62-11.433 49.736-13.159 69.425,1.162 3.336,2.428 7.225,5.755 8.521,9.853 .984,3.111-1.523,3.275-3.691,1.963" fill="url(#d)"/>
 <path d="m22.66,38.61c-3.919,10.739-3.503,25.124-1.078,36.143 6.635-7.863 4.04-15.573 5.632-25.008 1.901-11.271 8.528-20.167 17.83-26.739 12.198-8.622 27.417-10.834 41.609-6.185 7.107,2.33 14.63,5.094 16.132,13.169 .764,4.106.719,9.033-.379,13.104 1.625-5.873 2.362-12.136 1.482-18.198-.854-5.892-4.893-6.803-9.97-9.404-7.499-3.851-16.241-5.208-24.596-5.106-19.187.229-39.681,9.128-46.662,28.224" fill="#494848"/>
 <path d="m103.165,19.323c-.086-.145-.021-.035 0,0m-89.375,58.604c-14.842,0-12.823-27.612-11.172-36.798 2.494-13.885 11.129-24.523 23.478-31.083 12.12-6.44 26.535-9.196 40.195-8.321 12.048.772 29.374,6.124 35.362,17.881 3.778,7.373 6.899,31.343-7.62,31.343-8.268,0-8.655-7.556-9.125-13.832-.566-7.605-1.395-16.762-8.36-21.156-11.05-6.961-28.441,2.685-37.01,10.51-4.875,4.453-9.476,10.19-11.604,16.563-2.383,7.134-2.074,14.221-2.122,21.535-.034,5.535-6.429,13.358-12.022,13.358m47.348-77.927c-27.023,0-55.98,13.598-60.275,42.731-1.429,9.69-2.878,35.082 11.538,36.597 4.867.511 8.691-2.159 11.22-6.113 4.184-6.541 2.862-11.335 3.657-18.626 2.369-21.706 20.031-38.448 42.496-39.437 6.035-.264 10.42,5.149 11.841,10.608 1.787,6.865.01,17.534 4.557,23.25 4.968,6.244 13.907,3.188 17.453-2.703 2.893-4.806 3.473-12.078 2.79-17.44-2.623-20.609-27.441-28.867-45.277-28.867" fill="url(#c)"/>
 <path d="m70.879,7.617c-15.736,0-31.768,5.598-41.803,18.187-4.667,5.855-7.719,12.865-9.07,20.217-.521,2.84-2.896,20.094.515,21.136-1.683-19.213 1.506-38.154 19.184-48.849 7.607-4.603 16.437-7.038 25.263-7.727 1.754-.137 20.751-.329 20.582-1.583-.256-1.91-13.508-1.381-14.671-1.381" fill="url(#b)"/>
 <path d="m68.258,10.407c-13.132.368-26.841,4.587-36.389,13.94-11.562,11.325-12.689,27.5-11.348,42.81 .787.243 1.585-15.577 1.833-17.171 1.102-7.088 3.747-13.92 7.927-19.766 8.769-12.262 23.219-18.695 37.977-19.813" fill="url(#a)"/>
</svg>
